<mxfile host="app.diagrams.net" agent="Mozilla/5.0 (Windows NT 10.0; Win64; x64) AppleWebKit/537.36 (KHTML, like Gecko) Chrome/136.0.0.0 Safari/537.36" version="27.0.8">
  <diagram name="Seite-1" id="EK2L3uibeBaXruBm2-Xg">
    <mxGraphModel dx="3330" dy="1554" grid="1" gridSize="10" guides="1" tooltips="1" connect="1" arrows="1" fold="1" page="1" pageScale="1" pageWidth="827" pageHeight="1169" math="0" shadow="0">
      <root>
        <mxCell id="0" />
        <mxCell id="1" parent="0" />
        <mxCell id="PF-AZvKPsO_e9bYHpn-a-73" value="My own computer" style="swimlane;whiteSpace=wrap;html=1;" vertex="1" parent="1">
          <mxGeometry x="190" y="385" width="200" height="140" as="geometry" />
        </mxCell>
        <mxCell id="PF-AZvKPsO_e9bYHpn-a-65" value="" style="verticalLabelPosition=bottom;html=1;verticalAlign=top;align=center;strokeColor=none;fillColor=#00BEF2;shape=mxgraph.azure.laptop;pointerEvents=1;" vertex="1" parent="PF-AZvKPsO_e9bYHpn-a-73">
          <mxGeometry x="30" y="70" width="50" height="30" as="geometry" />
        </mxCell>
        <mxCell id="PF-AZvKPsO_e9bYHpn-a-66" value="&lt;span class=&quot;notion-enable-hover&quot; data-token-index=&quot;0&quot; style=&quot;background:rgba(252, 241, 246, 1);isolation:auto&quot;&gt;kubectl&lt;/span&gt;" style="rounded=0;whiteSpace=wrap;html=1;" vertex="1" parent="PF-AZvKPsO_e9bYHpn-a-73">
          <mxGeometry x="104" y="50" width="56" height="30" as="geometry" />
        </mxCell>
        <mxCell id="PF-AZvKPsO_e9bYHpn-a-67" value="&lt;span class=&quot;notion-enable-hover&quot; data-token-index=&quot;0&quot; style=&quot;background: rgb(252, 241, 246); isolation: auto;&quot;&gt;config&lt;/span&gt;" style="rounded=0;whiteSpace=wrap;html=1;" vertex="1" parent="PF-AZvKPsO_e9bYHpn-a-73">
          <mxGeometry x="104" y="100" width="59" height="30" as="geometry" />
        </mxCell>
        <mxCell id="PF-AZvKPsO_e9bYHpn-a-82" value="" style="swimlane;startSize=0;" vertex="1" parent="1">
          <mxGeometry x="470" y="280" width="830" height="350" as="geometry" />
        </mxCell>
        <mxCell id="PF-AZvKPsO_e9bYHpn-a-89" value="Pod 3 (Blog Website)&amp;nbsp;" style="swimlane;whiteSpace=wrap;html=1;" vertex="1" parent="PF-AZvKPsO_e9bYHpn-a-82">
          <mxGeometry x="592" y="84" width="200" height="200" as="geometry" />
        </mxCell>
        <mxCell id="PF-AZvKPsO_e9bYHpn-a-90" value="Container (web server)" style="rounded=0;whiteSpace=wrap;html=1;" vertex="1" parent="PF-AZvKPsO_e9bYHpn-a-89">
          <mxGeometry x="40" y="49" width="120" height="60" as="geometry" />
        </mxCell>
        <mxCell id="PF-AZvKPsO_e9bYHpn-a-91" value="Container (content cache)" style="rounded=0;whiteSpace=wrap;html=1;" vertex="1" parent="PF-AZvKPsO_e9bYHpn-a-89">
          <mxGeometry x="40" y="129" width="120" height="60" as="geometry" />
        </mxCell>
        <mxCell id="PF-AZvKPsO_e9bYHpn-a-85" value="Pod 2 (Replica of Pod 1)" style="swimlane;whiteSpace=wrap;html=1;" vertex="1" parent="PF-AZvKPsO_e9bYHpn-a-82">
          <mxGeometry x="309" y="84" width="200" height="200" as="geometry" />
        </mxCell>
        <mxCell id="PF-AZvKPsO_e9bYHpn-a-79" value="Pod 1 (Video Game Server)" style="swimlane;whiteSpace=wrap;html=1;" vertex="1" parent="PF-AZvKPsO_e9bYHpn-a-82">
          <mxGeometry x="30" y="84" width="200" height="200" as="geometry" />
        </mxCell>
        <mxCell id="PF-AZvKPsO_e9bYHpn-a-80" value="Container (game lgic)" style="rounded=0;whiteSpace=wrap;html=1;" vertex="1" parent="PF-AZvKPsO_e9bYHpn-a-79">
          <mxGeometry x="40" y="49" width="120" height="60" as="geometry" />
        </mxCell>
        <mxCell id="PF-AZvKPsO_e9bYHpn-a-81" value="Container (matchmaking)" style="rounded=0;whiteSpace=wrap;html=1;" vertex="1" parent="PF-AZvKPsO_e9bYHpn-a-79">
          <mxGeometry x="40" y="129" width="120" height="60" as="geometry" />
        </mxCell>
        <mxCell id="PF-AZvKPsO_e9bYHpn-a-110" value="Node 1" style="swimlane;whiteSpace=wrap;html=1;" vertex="1" parent="PF-AZvKPsO_e9bYHpn-a-82">
          <mxGeometry x="20" y="35" width="230" height="275" as="geometry" />
        </mxCell>
        <mxCell id="PF-AZvKPsO_e9bYHpn-a-111" value="Node 2" style="swimlane;whiteSpace=wrap;html=1;" vertex="1" parent="PF-AZvKPsO_e9bYHpn-a-82">
          <mxGeometry x="300" y="35" width="230" height="275" as="geometry" />
        </mxCell>
        <mxCell id="PF-AZvKPsO_e9bYHpn-a-113" value="Container (game lgic)" style="rounded=0;whiteSpace=wrap;html=1;" vertex="1" parent="PF-AZvKPsO_e9bYHpn-a-111">
          <mxGeometry x="49" y="98" width="120" height="60" as="geometry" />
        </mxCell>
        <mxCell id="PF-AZvKPsO_e9bYHpn-a-114" value="Container (matchmaking)" style="rounded=0;whiteSpace=wrap;html=1;" vertex="1" parent="PF-AZvKPsO_e9bYHpn-a-111">
          <mxGeometry x="49" y="178" width="120" height="60" as="geometry" />
        </mxCell>
        <mxCell id="PF-AZvKPsO_e9bYHpn-a-112" value="Node 3" style="swimlane;whiteSpace=wrap;html=1;" vertex="1" parent="PF-AZvKPsO_e9bYHpn-a-82">
          <mxGeometry x="570" y="37.5" width="230" height="275" as="geometry" />
        </mxCell>
        <mxCell id="PF-AZvKPsO_e9bYHpn-a-83" value="&lt;font style=&quot;font-size: 24px;&quot;&gt;Kubernetes cluster&lt;/font&gt;" style="text;html=1;align=center;verticalAlign=middle;whiteSpace=wrap;rounded=0;" vertex="1" parent="1">
          <mxGeometry x="779" y="240" width="213" height="30" as="geometry" />
        </mxCell>
        <mxCell id="PF-AZvKPsO_e9bYHpn-a-92" style="edgeStyle=orthogonalEdgeStyle;rounded=0;orthogonalLoop=1;jettySize=auto;html=1;exitX=1;exitY=0.5;exitDx=0;exitDy=0;entryX=0;entryY=0.61;entryDx=0;entryDy=0;entryPerimeter=0;" edge="1" parent="1" source="PF-AZvKPsO_e9bYHpn-a-66" target="PF-AZvKPsO_e9bYHpn-a-82">
          <mxGeometry relative="1" as="geometry" />
        </mxCell>
        <mxCell id="PF-AZvKPsO_e9bYHpn-a-115" style="edgeStyle=orthogonalEdgeStyle;rounded=0;orthogonalLoop=1;jettySize=auto;html=1;entryX=0.5;entryY=1;entryDx=0;entryDy=0;" edge="1" parent="1" source="PF-AZvKPsO_e9bYHpn-a-93" target="PF-AZvKPsO_e9bYHpn-a-97">
          <mxGeometry relative="1" as="geometry" />
        </mxCell>
        <mxCell id="PF-AZvKPsO_e9bYHpn-a-116" value="HTTP messages" style="edgeLabel;html=1;align=center;verticalAlign=middle;resizable=0;points=[];" vertex="1" connectable="0" parent="PF-AZvKPsO_e9bYHpn-a-115">
          <mxGeometry x="0.0198" y="1" relative="1" as="geometry">
            <mxPoint as="offset" />
          </mxGeometry>
        </mxCell>
        <mxCell id="PF-AZvKPsO_e9bYHpn-a-93" value="Internet" style="points=[];aspect=fixed;html=1;align=center;shadow=0;dashed=0;fillColor=#FF6A00;strokeColor=none;shape=mxgraph.alibaba_cloud.uis_ultimate_internet_service;" vertex="1" parent="1">
          <mxGeometry x="1046.55" y="893" width="54.900000000000006" height="54" as="geometry" />
        </mxCell>
        <mxCell id="PF-AZvKPsO_e9bYHpn-a-119" style="edgeStyle=orthogonalEdgeStyle;rounded=0;orthogonalLoop=1;jettySize=auto;html=1;exitX=0.5;exitY=0;exitDx=0;exitDy=0;entryX=0.5;entryY=1;entryDx=0;entryDy=0;" edge="1" parent="1" source="PF-AZvKPsO_e9bYHpn-a-96" target="PF-AZvKPsO_e9bYHpn-a-112">
          <mxGeometry relative="1" as="geometry">
            <Array as="points">
              <mxPoint x="660" y="700" />
              <mxPoint x="1155" y="700" />
            </Array>
          </mxGeometry>
        </mxCell>
        <mxCell id="PF-AZvKPsO_e9bYHpn-a-96" value="Volume" style="rounded=0;whiteSpace=wrap;html=1;" vertex="1" parent="1">
          <mxGeometry x="600" y="750" width="120" height="60" as="geometry" />
        </mxCell>
        <mxCell id="PF-AZvKPsO_e9bYHpn-a-109" style="edgeStyle=orthogonalEdgeStyle;rounded=0;orthogonalLoop=1;jettySize=auto;html=1;entryX=0.5;entryY=1;entryDx=0;entryDy=0;" edge="1" parent="1" source="PF-AZvKPsO_e9bYHpn-a-108" target="PF-AZvKPsO_e9bYHpn-a-96">
          <mxGeometry relative="1" as="geometry" />
        </mxCell>
        <mxCell id="PF-AZvKPsO_e9bYHpn-a-108" value="" style="shape=cylinder3;whiteSpace=wrap;html=1;boundedLbl=1;backgroundOutline=1;size=15;" vertex="1" parent="1">
          <mxGeometry x="630" y="880" width="60" height="80" as="geometry" />
        </mxCell>
        <mxCell id="PF-AZvKPsO_e9bYHpn-a-117" style="edgeStyle=orthogonalEdgeStyle;rounded=0;orthogonalLoop=1;jettySize=auto;html=1;entryX=0.5;entryY=1;entryDx=0;entryDy=0;" edge="1" parent="1" source="PF-AZvKPsO_e9bYHpn-a-97" target="PF-AZvKPsO_e9bYHpn-a-110">
          <mxGeometry relative="1" as="geometry">
            <Array as="points">
              <mxPoint x="1074" y="660" />
              <mxPoint x="605" y="660" />
            </Array>
          </mxGeometry>
        </mxCell>
        <mxCell id="PF-AZvKPsO_e9bYHpn-a-118" style="edgeStyle=orthogonalEdgeStyle;rounded=0;orthogonalLoop=1;jettySize=auto;html=1;exitX=0.5;exitY=0;exitDx=0;exitDy=0;entryX=0.5;entryY=1;entryDx=0;entryDy=0;" edge="1" parent="1" source="PF-AZvKPsO_e9bYHpn-a-97" target="PF-AZvKPsO_e9bYHpn-a-111">
          <mxGeometry relative="1" as="geometry">
            <Array as="points">
              <mxPoint x="1074" y="660" />
              <mxPoint x="885" y="660" />
            </Array>
          </mxGeometry>
        </mxCell>
        <mxCell id="PF-AZvKPsO_e9bYHpn-a-120" style="edgeStyle=orthogonalEdgeStyle;rounded=0;orthogonalLoop=1;jettySize=auto;html=1;entryX=0.75;entryY=1;entryDx=0;entryDy=0;" edge="1" parent="1" source="PF-AZvKPsO_e9bYHpn-a-97" target="PF-AZvKPsO_e9bYHpn-a-112">
          <mxGeometry relative="1" as="geometry">
            <Array as="points">
              <mxPoint x="1074" y="660" />
              <mxPoint x="1213" y="660" />
            </Array>
          </mxGeometry>
        </mxCell>
        <mxCell id="PF-AZvKPsO_e9bYHpn-a-97" value="service" style="rounded=0;whiteSpace=wrap;html=1;" vertex="1" parent="1">
          <mxGeometry x="1014" y="750" width="120" height="60" as="geometry" />
        </mxCell>
      </root>
    </mxGraphModel>
  </diagram>
</mxfile>
